<?xml version="1.0" encoding="UTF-8"?>
<svg version="1.1" xmlns="http://www.w3.org/2000/svg" width="512" height="512">
<path d="M0 0 C168.96 0 337.92 0 512 0 C512 168.96 512 337.92 512 512 C343.04 512 174.08 512 0 512 C0 343.04 0 174.08 0 0 Z " fill="#020201" transform="translate(0,0)"/>
<path d="M0 0 C6.86489926 2.31586963 12.53659621 7.5789186 18.15625 12 C22.65379368 15.53105025 27.23330943 18.95091275 31.8125 22.375 C32.67109619 23.01783936 33.52969238 23.66067871 34.41430664 24.32299805 C36.12901942 25.606729 37.84394169 26.89018019 39.55908203 28.17333984 C43.77411378 31.32765746 47.98474044 34.48784477 52.19580078 37.64746094 C55.49201901 40.12024905 58.78966655 42.59109109 62.08984375 45.05859375 C65.4290687 47.55577741 68.76283728 50.06010151 72.09375 52.56835938 C73.96445227 53.97330278 75.84139432 55.36959136 77.71875 56.765625 C78.87531599 57.63499644 80.03158175 58.5047675 81.1875 59.375 C82.19167969 60.12523437 83.19585937 60.87546875 84.23046875 61.6484375 C89.4358048 66.06820097 93.60379993 70.69967826 94.25447559 77.76205635 C94.25652846 78.77121038 94.25858133 79.78036442 94.26069641 80.82009888 C94.26778122 81.98378998 94.27486603 83.14748108 94.28216553 84.34643555 C94.27968811 85.61414795 94.27721069 86.88186035 94.2746582 88.18798828 C94.27900776 89.54344971 94.28419173 90.89890868 94.29014587 92.25436401 C94.30351688 95.92773373 94.30411697 99.60100044 94.30158257 103.27438974 C94.30051217 106.34126134 94.30539769 109.40811215 94.310188 112.47497928 C94.32127531 119.70745647 94.32172411 126.93988171 94.31567383 134.17236328 C94.30962552 141.63705857 94.32196845 149.10156578 94.3432439 156.56622899 C94.36084096 162.97567769 94.3668645 169.3850664 94.36360615 175.79453838 C94.36179107 179.62261058 94.36445235 183.45054843 94.37832069 187.27859879 C94.39086472 190.87541379 94.38898784 194.47193435 94.37590981 198.06874466 C94.37240441 200.02071138 94.38374547 201.97268697 94.39547729 203.92462158 C94.38846298 205.08267303 94.38144867 206.24072449 94.3742218 207.43386841 C94.37438954 208.44226839 94.37455729 209.45066837 94.37473011 210.48962593 C94 213 94 213 92.6438961 214.8253355 C90.15012389 216.60728856 88.09431899 216.3593463 85.05981445 216.34057617 C83.82171021 216.34021362 82.58360596 216.33985107 81.3079834 216.33947754 C80.00623169 216.32412964 78.70447998 216.30878174 77.36328125 216.29296875 C76.1671521 216.28994751 74.97102295 216.28692627 73.73864746 216.28381348 C69.26317742 216.26809716 64.7878302 216.22621334 60.3125 216.1875 C45.3078125 216.0946875 45.3078125 216.0946875 30 216 C30 186.96 30 157.92 30 128 C26.71336217 126.90445406 24.27665976 126.86646914 20.81616211 126.85473633 C19.54151596 126.84835648 18.26686981 126.84197662 16.95359802 126.83540344 C15.56151365 126.83387512 14.16942877 126.83276097 12.77734375 126.83203125 C11.35152655 126.82881839 9.92570969 126.8254543 8.49989319 126.82194519 C5.51318598 126.81595937 2.5265077 126.81410483 -0.46020508 126.81469727 C-4.2927069 126.81479909 -8.12502431 126.80112332 -11.95748234 126.78392506 C-14.90080117 126.77282603 -17.84407503 126.77077737 -20.78741264 126.77130699 C-22.20084712 126.77012461 -23.61428268 126.76568843 -25.02769661 126.75797462 C-27.00029249 126.74821346 -28.97294238 126.75230695 -30.94555664 126.75708008 C-32.06901993 126.75565506 -33.19248322 126.75423004 -34.34999084 126.75276184 C-37.15570334 126.73012766 -37.15570334 126.73012766 -39 129 C-39.21763444 131.76924021 -39.31142149 134.44144644 -39.31884766 137.21337891 C-39.32889328 138.0622316 -39.3389389 138.91108429 -39.34928894 139.78565979 C-39.38024907 142.59928695 -39.39719155 145.41281843 -39.4140625 148.2265625 C-39.43276384 150.174274 -39.45233647 152.12197731 -39.4727478 154.06967163 C-39.52418427 159.20214013 -39.56374823 164.33463493 -39.60089111 169.46722412 C-39.64085875 174.70217455 -39.69198402 179.93701449 -39.7421875 185.171875 C-39.83908305 195.44783918 -39.92344405 205.72386558 -40 216 C-47.90156605 216.06948567 -55.80300463 216.12280364 -63.70480061 216.15543652 C-67.37386676 216.17109805 -71.04272401 216.19234475 -74.71166992 216.22631836 C-78.25188947 216.25889514 -81.79190799 216.27684934 -85.33226585 216.28463173 C-87.34147655 216.29287924 -89.35060628 216.31630137 -91.35969543 216.33988953 C-93.19125435 216.34022942 -93.19125435 216.34022942 -95.05981445 216.34057617 C-96.67530937 216.35056892 -96.67530937 216.35056892 -98.32344055 216.36076355 C-101 216 -101 216 -102.64347553 214.81611443 C-104.50314249 212.32639303 -104.37738037 210.67435914 -104.38095093 207.58140564 C-104.3894104 206.45582245 -104.39786987 205.33023926 -104.40658569 204.17054749 C-104.400513 202.93469406 -104.39444031 201.69884064 -104.38818359 200.42553711 C-104.39344055 199.12442993 -104.39869751 197.82332275 -104.40411377 196.48278809 C-104.41780954 192.91000924 -104.41247707 189.33748985 -104.40297651 185.76470637 C-104.39538036 182.02042234 -104.40242644 178.27616052 -104.40713501 174.53187561 C-104.41259743 168.23613505 -104.4053932 161.94049994 -104.39111328 155.64477539 C-104.37483535 148.38474135 -104.38003773 141.1249607 -104.3965925 133.86493295 C-104.41025297 127.62270769 -104.41210335 121.3805583 -104.40427649 115.13832289 C-104.39961853 111.41452459 -104.39892202 107.69084487 -104.40888596 103.96705437 C-104.41924417 99.80462816 -104.4048442 95.64263039 -104.38818359 91.48022461 C-104.39425629 90.2585408 -104.40032898 89.03685699 -104.40658569 87.77815247 C-104.34334419 79.21593039 -103.96129249 70.79202679 -97.8515625 64.27734375 C-93.91402481 60.74880723 -89.6741913 57.63231708 -85.375 54.5625 C-83.69285723 53.34273458 -82.01191304 52.1213149 -80.33203125 50.8984375 C-79.46143066 50.26518555 -78.59083008 49.63193359 -77.69384766 48.97949219 C-73.10524962 45.60770019 -68.58459113 42.14769888 -64.0625 38.6875 C-62.28647385 37.33070886 -60.51043271 35.97393733 -58.734375 34.6171875 C-57.50170898 33.67504395 -57.50170898 33.67504395 -56.24414062 32.71386719 C-47.04403513 25.68767696 -37.70431521 18.86681957 -28.30859375 12.10546875 C-23.84372418 8.89190021 -19.40225807 5.64733772 -14.96875 2.390625 C-10.28830309 -0.91540496 -5.57037419 -0.62471486 0 0 Z " fill="#020202" transform="translate(202,176)"/>
<path d="M0 0 C1.85818359 0.00193359 1.85818359 0.00193359 3.75390625 0.00390625 C10.42993308 0.78973762 15.2779807 3.78185112 20.625 7.6875 C21.21394043 8.11587158 21.80288086 8.54424316 22.40966797 8.9855957 C24.42662073 10.45944326 26.43324985 11.9464265 28.4375 13.4375 C29.18757324 13.99550293 29.93764648 14.55350586 30.71044922 15.12841797 C35.75983176 18.89291762 40.79347877 22.67809466 45.82324219 26.46875 C50.106282 29.69422937 54.39727435 32.90908888 58.6875 36.125 C60.35028105 37.37236833 62.01304181 38.61976371 63.67578125 39.8671875 C66.71321415 42.14541536 69.75221131 44.42152407 72.79296875 46.6953125 C89.3764191 59.10065575 89.3764191 59.10065575 97.4375 65.4375 C97.96601563 65.84709961 98.49453125 66.25669922 99.0390625 66.67871094 C102.11067378 69.12734223 104.35473293 71.33526384 106.1875 74.8125 C106.57421875 75.52148438 106.9609375 76.23046875 107.359375 76.9609375 C110.70420898 84.64436047 110.7451348 91.63120176 110.75976562 99.94091797 C110.76903548 101.306646 110.7790866 102.67236891 110.78985596 104.03808594 C110.81597193 107.73237099 110.82896694 111.42658358 110.83787727 115.12094641 C110.84375808 117.43286567 110.85197109 119.74476553 110.86088562 122.05667496 C110.88819614 129.30164581 110.90755059 136.54657184 110.9152894 143.79159057 C110.92425198 152.13434997 110.95936908 160.47645419 111.01729059 168.81901443 C111.06060101 175.28295048 111.08070188 181.74670264 111.08337164 188.21078217 C111.08546163 192.06493088 111.09714428 195.91846209 111.13301086 199.77245712 C111.1661094 203.39909208 111.17022001 207.02464973 111.15273285 210.65138245 C111.1504724 212.60463334 111.17780104 214.55784958 111.20623779 216.51089478 C111.14170768 223.34863594 110.3360755 227.99865282 106.40853119 233.65960884 C101.31612626 238.25301241 95.82938002 238.88098539 89.20863342 238.84536743 C88.00756436 238.85662078 88.00756436 238.85662078 86.78223127 238.86810148 C84.11389513 238.88934003 81.44600207 238.88931831 78.77758789 238.88916016 C76.8585187 238.89977962 74.93945588 238.91161086 73.020401 238.92456055 C67.81794626 238.95528884 62.61562905 238.96647626 57.41309285 238.97220278 C54.16111078 238.97656122 50.9091642 238.98493906 47.65719414 238.99470139 C36.30765843 239.02842581 24.95822657 239.04558068 13.60864258 239.04833984 C3.03552749 239.05137629 -7.5370036 239.09184864 -18.10994905 239.14948809 C-27.19466376 239.19726731 -36.27918559 239.21807191 -45.36402518 239.21813047 C-50.7869891 239.21866841 -56.20938042 239.2302465 -61.6322155 239.26930618 C-66.73214857 239.30517173 -71.83101407 239.30745069 -76.93100929 239.28413391 C-78.79985535 239.28127444 -80.66876434 239.29032351 -82.53748322 239.31231308 C-98.4058442 239.48742566 -98.4058442 239.48742566 -103.54933167 235.19735718 C-105.18009281 233.42741966 -105.18009281 233.42741966 -106.5625 231.4375 C-107.11123433 230.65659783 -107.65996866 229.87569567 -108.22533131 229.0711298 C-109.7868575 225.99561515 -109.94914059 223.9766222 -109.97036743 220.53956604 C-109.98460754 219.35811508 -109.99884766 218.17666412 -110.01351929 216.95941162 C-110.01373077 215.67157776 -110.01394226 214.3837439 -110.01416016 213.05688477 C-110.0247804 211.67985591 -110.03661179 210.30283595 -110.04956055 208.92582703 C-110.0803052 205.18973904 -110.09147966 201.45384265 -110.09720278 197.71764112 C-110.10156442 195.37787485 -110.10994515 193.03815774 -110.11970139 190.69840813 C-110.15344915 182.51904654 -110.17058135 174.33982906 -110.17333984 166.16040039 C-110.17636603 158.56499673 -110.21670279 150.97041197 -110.27448809 143.37524563 C-110.32247572 136.8348216 -110.34307213 130.29466562 -110.34313047 123.75406688 C-110.34366554 119.85662231 -110.35496442 115.95997818 -110.39430618 112.06271553 C-110.43052462 108.38753019 -110.43224788 104.71382121 -110.40913391 101.03854561 C-110.40497142 99.07072285 -110.43506833 97.1029173 -110.46676636 95.13534546 C-110.34783779 84.85270091 -107.37541131 76.02396238 -100.56994057 68.12468815 C-98.36287817 66.00282165 -96.03984798 64.24012313 -93.5625 62.4375 C-92.9447168 61.98616699 -92.32693359 61.53483398 -91.69042969 61.06982422 C-88.73324691 58.91427059 -85.76813079 56.7706316 -82.78759766 54.64746094 C-77.12301717 50.60780317 -71.59768438 46.42046458 -66.125 42.125 C-60.52358058 37.73024233 -54.8873259 33.42094759 -49.1015625 29.26953125 C-46.3956789 27.31713216 -43.72744945 25.32038891 -41.0625 23.3125 C-39.51773436 22.15392577 -37.97293878 20.99539132 -36.42773438 19.83740234 C-35.05281799 18.8054952 -33.67933125 17.77168252 -32.30664062 16.73681641 C-29.81330063 14.85984677 -27.31335684 12.99193895 -24.8125 11.125 C-24.02037109 10.52606934 -23.22824219 9.92713867 -22.41210938 9.31005859 C-15.15870689 3.91553018 -9.32375985 -0.14583566 0 0 Z M-14.5625 17.4375 C-15.28147461 17.95368896 -16.00044922 18.46987793 -16.74121094 19.00170898 C-18.9651116 20.60962446 -21.17174194 22.23892661 -23.375 23.875 C-24.19049316 24.47844238 -25.00598633 25.08188477 -25.84619141 25.70361328 C-39.75072593 36.00651479 -53.57116935 46.41734993 -67.31518555 56.93334961 C-71.74727641 60.318259 -76.20258135 63.64697324 -80.75 66.875 C-84.26145951 69.43438915 -87.71097514 72.0459337 -91.0625 74.8125 C-92.25359375 75.78316406 -92.25359375 75.78316406 -93.46875 76.7734375 C-99.33506466 84.23766623 -98.99575673 93.85006422 -98.95068359 102.91772461 C-98.95594055 104.23109802 -98.96119751 105.54447144 -98.96661377 106.89764404 C-98.98018476 110.46953957 -98.97503403 114.04117257 -98.96547651 117.61307216 C-98.95783764 121.36059023 -98.96493616 125.10808705 -98.96963501 128.85560608 C-98.9750756 135.13888559 -98.96794077 141.42205891 -98.95361328 147.70532227 C-98.93724014 154.96961734 -98.94261568 162.23366041 -98.9590925 169.49794954 C-98.97269658 175.7461513 -98.97463384 181.99427715 -98.96677649 188.24248892 C-98.9621004 191.96987233 -98.96147431 195.69713708 -98.97138596 199.42451286 C-98.98164455 203.57084043 -98.96743622 207.71673079 -98.95068359 211.86303711 C-98.95675629 213.09889053 -98.96282898 214.33474396 -98.96908569 215.60804749 C-98.96062622 216.73363068 -98.95216675 217.85921387 -98.94345093 219.01890564 C-98.94231985 219.9986885 -98.94118877 220.97847136 -98.94002342 221.9879446 C-98.75215151 224.47994389 -98.75215151 224.47994389 -97.20597553 226.25361443 C-94.71421579 228.04856565 -92.6622616 227.79687997 -89.62231445 227.77807617 C-87.79075554 227.77773628 -87.79075554 227.77773628 -85.92219543 227.77738953 C-84.60337875 227.76190567 -83.28456207 227.74642181 -81.92578125 227.73046875 C-80.56243862 227.72487243 -79.19908996 227.7206025 -77.83573914 227.71760559 C-74.25006408 227.70615949 -70.66475446 227.67669486 -67.07922363 227.64349365 C-63.4194025 227.61278739 -59.75952223 227.5990991 -56.09960938 227.58398438 C-48.92040644 227.55182449 -41.74150446 227.50063153 -34.5625 227.4375 C-34.55441315 226.3519986 -34.54632629 225.26649719 -34.53799438 224.14810181 C-34.46062652 213.93561433 -34.37291126 203.72326163 -34.27497292 193.51095009 C-34.22495268 188.2602568 -34.1786233 183.0095842 -34.140625 177.75878906 C-34.10384436 172.6947837 -34.05750444 167.63094905 -34.00443649 162.56708908 C-33.98585402 160.63175821 -33.97076043 158.69639069 -33.95915604 156.7610054 C-33.94235925 154.05745072 -33.91334079 151.35429033 -33.88134766 148.65087891 C-33.87918747 147.84455521 -33.87702728 147.03823151 -33.87480164 146.20747375 C-33.79060432 140.66560432 -33.79060432 140.66560432 -31.5625 138.4375 C-28.91249084 138.19026184 -28.91249084 138.19026184 -25.50805664 138.19458008 C-24.23656265 138.19150345 -22.96506866 138.18842682 -21.65504456 138.18525696 C-20.2609133 138.19215566 -18.86678382 138.1994227 -17.47265625 138.20703125 C-16.04780621 138.20822318 -14.62295537 138.20867618 -13.19810486 138.2084198 C-10.20957531 138.20998525 -7.22116545 138.21827848 -4.23266602 138.23168945 C-0.40139822 138.248664 3.42973778 138.25250423 7.26103878 138.25174427 C10.20440428 138.25201622 13.14774096 138.25750176 16.09109688 138.26474571 C17.50369613 138.26792879 18.91629865 138.26989895 20.32890129 138.27063942 C22.30383349 138.27280764 24.27875345 138.28235153 26.25366211 138.29223633 C27.37792099 138.29604813 28.50217987 138.29985992 29.6605072 138.30378723 C32.4375 138.4375 32.4375 138.4375 35.4375 139.4375 C35.4375 168.4775 35.4375 197.5175 35.4375 227.4375 C50.4421875 227.5303125 50.4421875 227.5303125 65.75 227.625 C68.90731689 227.65231201 72.06463379 227.67962402 75.31762695 227.70776367 C77.81200782 227.71652308 80.30639296 227.7241683 82.80078125 227.73046875 C84.10253296 227.74581665 85.40428467 227.76116455 86.7454834 227.77697754 C88.60263977 227.77752136 88.60263977 227.77752136 90.49731445 227.77807617 C91.57431107 227.78473801 92.65130768 227.79139984 93.76094055 227.79826355 C96.40519321 227.65448998 96.40519321 227.65448998 98.08055496 226.26157379 C99.95776205 223.73813757 99.81760815 222.02173468 99.82518005 218.89155579 C99.83508469 217.73783981 99.84498932 216.58412384 99.85519409 215.39544678 C99.84844162 213.49487518 99.84844162 213.49487518 99.84155273 211.5559082 C99.84725477 210.20885145 99.85421838 208.86179953 99.86235046 207.51475525 C99.88032311 203.85328607 99.87910498 200.19205604 99.87340808 196.53055596 C99.8703198 193.47170286 99.87640518 190.41289593 99.88244683 187.35404938 C99.89650609 180.13288526 99.8949213 172.91183937 99.88354492 165.69067383 C99.87208301 158.25105047 99.88610345 150.81178841 99.9129414 143.37221271 C99.93513537 136.97969762 99.94172687 130.58729562 99.93586498 124.19474477 C99.93250048 120.37930262 99.93487548 116.56409164 99.95211601 112.74868202 C99.96764048 109.15589738 99.9635695 105.56364455 99.94481087 101.97088051 C99.93939595 100.03297716 99.95360037 98.09504964 99.96850586 96.15719604 C99.90085626 88.12372806 98.98984092 82.60763934 93.640625 76.328125 C86.81939778 70.59829414 79.70007348 65.2851069 72.53710938 59.99316406 C69.87244081 58.01883057 67.22290789 56.02482825 64.57373047 54.02978516 C57.19063991 48.4707305 49.75418979 42.98670245 42.3046875 37.51708984 C37.70042253 34.12877965 33.1381848 30.6960399 28.625 27.1875 C24.07755342 23.66746112 19.47867696 20.23508097 14.8125 16.875 C13.92340942 16.22966309 13.92340942 16.22966309 13.01635742 15.57128906 C8.7405199 12.51738564 5.54037813 11.24575495 0.3125 11 C-0.57695312 10.93941406 -1.46640625 10.87882813 -2.3828125 10.81640625 C-7.24423135 11.76599543 -10.61651563 14.54298312 -14.5625 17.4375 Z " fill="#F2F3F1" transform="translate(196.5625,164.5625)"/>
<path d="M0 0 C1.94887367 -0.01929817 1.94887367 -0.01929817 3.93711853 -0.03898621 C5.37019282 -0.04307145 6.80326783 -0.04690833 8.23634338 -0.05052185 C9.75129751 -0.06142264 11.26624625 -0.07309496 12.78118896 -0.08547974 C16.89326069 -0.11595152 21.0052765 -0.13299708 25.11743808 -0.14569592 C27.69170454 -0.15379346 30.26595516 -0.1639748 32.84021187 -0.17471123 C40.90905794 -0.20743018 48.97786522 -0.23132537 57.04676861 -0.24352509 C66.3330505 -0.25775111 75.61856864 -0.30153006 84.9045977 -0.37102658 C92.09892339 -0.42299393 99.29303329 -0.44771296 106.48754364 -0.45234722 C110.77622482 -0.45572947 115.06413369 -0.47033453 119.35261345 -0.51362801 C123.39543065 -0.55372531 127.43694809 -0.55963652 131.47990608 -0.54072762 C132.95278538 -0.53947357 134.42573538 -0.54990048 135.89842224 -0.57374191 C147.27582882 -0.74721453 157.17880903 1.49816196 165.84516048 9.34786129 C167.72146003 11.56824857 169.16754216 13.74424182 170.5705719 16.28761292 C170.94633677 16.96845381 171.32210163 17.6492947 171.70925331 18.35076714 C176.13284742 28.41405615 175.11392801 39.4821545 175.05641174 50.2412262 C175.05855981 52.57304599 175.06244077 54.90486473 175.06791687 57.23667908 C175.07758019 63.54645441 175.06234491 69.85594519 175.04201078 76.16568613 C175.02618307 82.10743903 175.02768736 88.04916958 175.02856143 93.99093972 C175.02956061 105.76322008 175.01129445 117.53539142 174.98219299 129.30763245 C174.95400949 140.71455368 174.93985219 152.12137903 174.94117737 163.52833557 C174.94129724 164.58272511 174.94129724 164.58272511 174.94141953 165.65841545 C174.94150024 166.36016254 174.94158094 167.06190962 174.9416641 167.78492177 C174.94311575 181.45544166 174.92912959 195.12591222 174.91077089 208.79641867 C174.90651312 212.72949111 174.90508921 216.6625561 174.90429306 220.59563065 C174.90228067 226.77957402 174.89004229 232.96341716 174.86996078 239.14732742 C174.86413095 241.41403082 174.86165596 243.68074576 174.86281586 245.94745636 C174.86380135 249.04639072 174.85244613 252.14504679 174.83799744 255.24394226 C174.84109464 256.13626907 174.84419184 257.02859587 174.8473829 257.94796288 C174.77944771 266.79879419 173.48720301 273.83343957 168.3205719 281.10011292 C167.57291565 282.17905823 166.8252594 283.25800354 166.0549469 284.36964417 C161.31520153 289.93660925 154.82647361 293.57171164 147.52771568 294.56586838 C145.376782 294.67362049 143.24437573 294.69340647 141.09083557 294.67579651 C139.88199203 294.68368195 139.88199203 294.68368195 138.64872742 294.69172668 C136.01179556 294.70482348 133.37547754 294.69622985 130.73854065 294.68605042 C128.89627975 294.68807313 127.05401964 294.69098622 125.21176147 294.69474792 C121.36457135 294.69915641 117.51759105 294.69278419 113.67042542 294.6787262 C108.73612768 294.66157478 103.80231739 294.67152229 98.86803722 294.68944359 C95.07025458 294.70027002 91.27258811 294.69684139 87.47480202 294.68906021 C85.65470128 294.68705816 83.83459002 294.68951765 82.01450157 294.69649887 C79.47716021 294.70410125 76.94061729 294.69252943 74.40333557 294.67579651 C73.65057846 294.6818692 72.89782135 294.68794189 72.12225342 294.69419861 C67.06594551 294.63229185 67.06594551 294.63229185 64.60446167 292.91960144 C63.11060118 290.56155202 63.16061951 289.02062887 63.5705719 286.28761292 C64.61019897 284.65342712 64.61019897 284.65342712 66.5705719 283.28761292 C69.22918407 283.00380588 71.65371657 282.9013709 74.3115387 282.93458557 C75.09891922 282.93242538 75.88629974 282.9302652 76.69754028 282.92803955 C78.40812921 282.92495094 80.11874026 282.92856328 81.82930565 282.93805313 C84.54138565 282.95178475 87.25273322 282.94535694 89.96481323 282.93321228 C97.67581429 282.90224774 105.38664697 282.90706993 113.09767151 282.92726135 C117.81513727 282.93821022 122.53205515 282.92491779 127.24944496 282.89736557 C129.04308038 282.89194054 130.83677113 282.89594915 132.63036156 282.90976334 C145.53811767 283.27527599 145.53811767 283.27527599 156.5705719 277.28761292 C158.43198595 275.24393392 158.43198595 275.24393392 159.5080719 273.10011292 C160.07848206 272.08884338 160.07848206 272.08884338 160.66041565 271.05714417 C162.90629696 266.69068822 162.71871207 262.83920982 162.71774292 257.98960876 C162.72141961 257.01349187 162.7250963 256.03737499 162.7288844 255.0316788 C162.7399538 251.73986906 162.74377061 248.44809085 162.74757385 245.15626526 C162.7538361 242.80444742 162.76048269 240.45263057 162.76748657 238.10081482 C162.78673966 231.02702375 162.79731947 223.95323622 162.80621436 216.87942547 C162.81059672 213.54817769 162.81596517 210.21693149 162.82120323 206.88568497 C162.83821829 195.81096158 162.85271153 184.7362392 162.85995197 173.66150475 C162.86186188 170.78671136 162.8637822 167.91191799 162.86573792 165.03712463 C162.86622166 164.32260658 162.8667054 163.60808852 162.86720379 162.8719184 C162.87550054 151.30231815 162.90083015 139.73282141 162.93331859 128.16326635 C162.96640328 116.28447196 162.9844021 104.40573014 162.98759621 92.52688944 C162.98976028 85.85765012 162.99893696 79.18854139 163.02405739 72.51934433 C163.0473131 66.24356106 163.05158119 59.96804921 163.04129601 53.69223404 C163.04079991 51.38962655 163.04714188 49.08700581 163.06085205 46.78443909 C163.0785347 43.6384733 163.07148191 40.49348532 163.05831909 37.34751892 C163.06928834 36.4383583 163.08025758 35.52919768 163.09155923 34.59248674 C163.02601104 28.09403695 161.67160157 22.64058022 157.1586588 17.76099145 C152.16835651 13.35035021 147.76316487 12.04172424 141.21466064 12.00672913 C139.93198303 11.99530884 138.64930542 11.98388855 137.32775879 11.97212219 C135.91349831 11.96963179 134.4992374 11.96738153 133.0849762 11.96534729 C131.58984388 11.95608469 130.09471628 11.94603452 128.59959412 11.93525696 C124.54369901 11.90906664 120.48787002 11.89613067 116.4319036 11.88723564 C113.89587569 11.88136543 111.35986569 11.87315422 108.82384682 11.86422729 C100.88315247 11.83689389 92.94249926 11.81755198 85.00176114 11.80982351 C75.84623952 11.80086276 66.69131519 11.76576342 57.53597516 11.70782232 C50.45129452 11.66454726 43.36678169 11.64441282 36.28197032 11.64174128 C32.05393375 11.63964829 27.82645926 11.62790132 23.59856224 11.59210205 C19.61987265 11.55906666 15.64216544 11.55486316 11.6633873 11.57238007 C10.20735219 11.57391693 8.75126346 11.56528582 7.29536247 11.54546356 C-0.31719471 11.44793691 -6.04078749 11.4411032 -11.90936565 16.6583786 C-16.62313925 21.71069846 -18.86909834 26.00577481 -19.8669281 32.97511292 C-19.73591231 36.69516726 -19.4326306 39.16665013 -16.89866638 41.99806213 C-12.56624262 45.71797459 -7.74229133 48.70153053 -2.90110779 51.70851135 C0.86963501 54.11755565 4.39785591 56.81534056 7.9455719 59.53761292 C9.26906169 60.53597583 10.59326239 61.53339715 11.91822815 62.52980042 C13.13573439 63.448994 14.35318634 64.3682595 15.5705719 65.28761292 C21.86001482 70.02724526 28.17037625 74.73431399 34.51808167 79.39552307 C38.54136326 82.35174155 42.55737355 85.31772503 46.5705719 88.28761292 C47.24459045 88.78535217 47.91860901 89.28309143 48.61305237 89.7959137 C50.39690678 91.11825969 52.17263823 92.45067646 53.9455719 93.78761292 C54.92268127 94.51980042 55.89979065 95.25198792 56.9065094 96.00636292 C64.30909816 102.34523658 64.30909816 102.34523658 65.0080719 107.53761292 C64.5705719 110.28761292 64.5705719 110.28761292 62.5705719 112.28761292 C59.7580719 112.78761292 59.7580719 112.78761292 56.5705719 112.28761292 C55.35075791 110.83624101 54.13555656 109.38030284 52.96095276 107.8921051 C50.75114379 105.3419972 48.03444783 103.53493267 45.2580719 101.66261292 C44.00421764 100.79201473 42.75166276 99.91954286 41.5002594 99.04542542 C40.85282776 98.59457581 40.20539612 98.1437262 39.53834534 97.67921448 C36.26861993 95.36687765 33.0773125 92.95262462 29.8830719 90.53761292 C23.99812037 86.09767207 18.07720826 81.71047158 12.1330719 77.35011292 C5.1745049 72.24147026 -1.71307663 67.04955983 -8.54905701 61.77809143 C-13.35744191 58.07752632 -18.23707971 54.51780646 -23.23020935 51.06886292 C-29.0637985 46.34396655 -29.0637985 46.34396655 -29.82176208 42.08106995 C-30.00619255 39.40695748 -30.03418623 36.78021749 -29.9919281 34.10011292 C-29.98387146 33.15845276 -29.97581482 32.2167926 -29.96751404 31.24659729 C-29.76656985 24.26923398 -28.68151929 18.97354881 -24.4294281 13.28761292 C-23.8519281 12.38011292 -23.2744281 11.47261292 -22.6794281 10.53761292 C-16.29362656 4.15181138 -9.09691951 0.05847417 0 0 Z " fill="#F3F4F2" transform="translate(256.42942810058594,108.71238708496094)"/>
<path d="M0 0 C15.84 0 31.68 0 48 0 C48 26.07 48 52.14 48 79 C32.16 79 16.32 79 0 79 C0 52.93 0 26.86 0 0 Z " fill="#020201" transform="translate(173,313)"/>
<path d="M0 0 C1.37918861 -0.00218285 1.37918861 -0.00218285 2.78623962 -0.00440979 C4.7270729 -0.00275186 6.66791945 0.00879752 8.60864258 0.02954102 C11.58276019 0.05852472 14.55509847 0.05014224 17.52929688 0.03710938 C19.41537326 0.04334601 21.30144402 0.05173636 23.1875 0.0625 C24.07816666 0.05956436 24.96883331 0.05662872 25.88648987 0.05360413 C26.71422409 0.0662883 27.54195831 0.07897247 28.39477539 0.09204102 C29.12217422 0.097444 29.84957306 0.10284698 30.59901428 0.1084137 C33.14245953 0.6197594 34.01472747 1.40367799 35.52734375 3.49609375 C35.90829468 5.54504395 35.90829468 5.54504395 35.91552734 7.91992188 C35.92498383 8.81094604 35.93444031 9.70197021 35.94418335 10.61999512 C35.93811066 11.57942017 35.93203796 12.53884521 35.92578125 13.52734375 C35.92865143 14.51480591 35.93152161 15.50226807 35.93447876 16.51965332 C35.9365205 18.60767185 35.930983 20.69570945 35.91845703 22.78369141 C35.90240525 25.98383258 35.91830234 29.18271071 35.9375 32.3828125 C35.93551759 34.41015904 35.93167396 36.4375048 35.92578125 38.46484375 C35.93185394 39.4242688 35.93792664 40.38369385 35.94418335 41.37219238 C35.93472687 42.26321655 35.92527039 43.15424072 35.91552734 44.07226562 C35.91314056 44.85597534 35.91075378 45.63968506 35.90829468 46.44714355 C35.42049213 49.07079677 34.6811174 49.94504543 32.52734375 51.49609375 C30.59901428 51.8837738 30.59901428 51.8837738 28.39477539 51.90014648 C27.56704117 51.91283066 26.73930695 51.92551483 25.88648987 51.93858337 C24.99582321 51.93564774 24.10515656 51.9327121 23.1875 51.9296875 C22.26899765 51.93492935 21.3504953 51.9401712 20.40415955 51.9455719 C18.46158865 51.95199534 16.51897888 51.95065094 14.57641602 51.94213867 C11.60427516 51.93363504 8.63405995 51.96237481 5.66210938 51.99414062 C3.77474016 51.99575288 1.88736754 51.99517464 0 51.9921875 C-0.88864243 52.00342148 -1.77728485 52.01465546 -2.69285583 52.02622986 C-6.356327 51.98486819 -8.79949936 51.8716255 -12.03149414 50.06860352 C-14.26273094 46.08579102 -14.04400379 42.33336214 -14.00390625 37.83984375 C-14.00773315 36.9005603 -14.01156006 35.96127686 -14.01550293 34.99353027 C-14.01822201 33.00983609 -14.01086109 31.02610605 -13.99414062 29.04248047 C-13.97273086 26.00667359 -13.99394232 22.97323329 -14.01953125 19.9375 C-14.01688797 18.00910936 -14.011763 16.08072019 -14.00390625 14.15234375 C-14.01200317 13.2449646 -14.0201001 12.33758545 -14.02844238 11.40270996 C-13.97326489 7.6931254 -13.86285404 5.19260638 -12.03149414 1.92358398 C-8.09733914 -0.27114975 -4.43408656 -0.05605453 0 0 Z " fill="#F4F4F2" transform="translate(346.47265625,163.50390625)"/>
<path d="M0 0 C0.8510582 -0.00953201 1.70211639 -0.01906403 2.57896423 -0.02888489 C3.9602224 -0.02751778 3.9602224 -0.02751778 5.36938477 -0.02612305 C6.31386978 -0.03040817 7.2583548 -0.0346933 8.23146057 -0.03910828 C10.23128456 -0.04485766 12.23112947 -0.04534738 14.23095703 -0.04101562 C17.29504005 -0.03785803 20.35815577 -0.06129905 23.42211914 -0.08666992 C25.36287313 -0.08894304 27.30362972 -0.08964635 29.24438477 -0.08862305 C30.62260658 -0.10243767 30.62260658 -0.10243767 32.02867126 -0.11653137 C32.88288162 -0.11030258 33.73709198 -0.10407379 34.6171875 -0.09765625 C35.36838364 -0.09828568 36.11957977 -0.0989151 36.89353943 -0.0995636 C39.48069309 0.38947215 40.34557815 1.14598306 41.87329102 3.2746582 C42.25424194 5.3236084 42.25424194 5.3236084 42.26147461 7.69848633 C42.27093109 8.5895105 42.28038757 9.48053467 42.29013062 10.39855957 C42.28405792 11.35798462 42.27798523 12.31740967 42.27172852 13.3059082 C42.27459869 14.29337036 42.27746887 15.28083252 42.28042603 16.29821777 C42.28246776 18.3862363 42.27693026 20.47427391 42.2644043 22.56225586 C42.24835252 25.76239704 42.26424961 28.96127516 42.28344727 32.16137695 C42.28146485 34.1887235 42.27762122 36.21606925 42.27172852 38.2434082 C42.27780121 39.20283325 42.2838739 40.1622583 42.29013062 41.15075684 C42.28067413 42.04178101 42.27121765 42.93280518 42.26147461 43.85083008 C42.25908783 44.63453979 42.25670105 45.41824951 42.25424194 46.22570801 C41.7657765 48.85292662 41.03470736 49.72623678 38.87329102 51.2746582 C36.89353943 51.65560913 36.89353943 51.65560913 34.6171875 51.6628418 C33.33587196 51.67702652 33.33587196 51.67702652 32.02867126 51.6914978 C30.65044945 51.68238876 30.65044945 51.68238876 29.24438477 51.6730957 C28.29894302 51.67596588 27.35350128 51.67883606 26.37940979 51.68179321 C24.38135173 51.68383448 22.38327372 51.67830027 20.38525391 51.66577148 C17.31896552 51.64970105 14.25399175 51.66562734 11.18774414 51.68481445 C9.24828809 51.68283238 7.30883287 51.67898946 5.36938477 51.6730957 C4.44854599 51.6791684 3.52770721 51.68524109 2.57896423 51.6914978 C1.30237694 51.67731308 1.30237694 51.67731308 0 51.6628418 C-1.12560081 51.65926163 -1.12560081 51.65926163 -2.27394104 51.65560913 C-4.12670898 51.2746582 -4.12670898 51.2746582 -6.12670898 48.2746582 C-6.38067627 46.18101501 -6.38067627 46.18101501 -6.38549805 43.74316406 C-6.39180237 42.82889145 -6.39810669 41.91461884 -6.40460205 40.97264099 C-6.40055359 39.98820511 -6.39650513 39.00376923 -6.39233398 37.98950195 C-6.39424744 36.97747208 -6.39616089 35.9654422 -6.39813232 34.92274475 C-6.39949345 32.78345491 -6.39580206 30.64415679 -6.38745117 28.50488281 C-6.3767397 25.22157349 -6.38735476 21.93880996 -6.40014648 18.65551758 C-6.39882509 16.57934449 -6.39626313 14.50317174 -6.39233398 12.42700195 C-6.39638245 11.44054184 -6.40043091 10.45408173 -6.40460205 9.43772888 C-6.39829773 8.52660843 -6.39199341 7.61548798 -6.38549805 6.67675781 C-6.38390686 5.87306259 -6.38231567 5.06936737 -6.38067627 4.24131775 C-5.86067034 0.21452107 -3.49894316 0.02148319 0 0 Z " fill="#F7F7F5" transform="translate(340.126708984375,296.725341796875)"/>
<path d="M0 0 C0.96763779 0.00091644 1.93527557 0.00183289 2.93223572 0.0027771 C4.97741604 0.00881899 7.02258727 0.02458256 9.06762695 0.04931641 C12.20622168 0.08583717 15.34363684 0.09033576 18.48242188 0.08984375 C20.46745817 0.09967408 22.45248643 0.11133072 24.4375 0.125 C25.38021255 0.12722565 26.32292511 0.12945129 27.29420471 0.13174438 C28.16528366 0.14450409 29.03636261 0.15726379 29.93383789 0.17041016 C30.70200333 0.17803375 31.47016876 0.18565735 32.26161194 0.19351196 C34.15234375 0.4609375 34.15234375 0.4609375 36.15234375 2.4609375 C36.41304016 4.38963318 36.41304016 4.38963318 36.42700195 6.77124023 C36.44129997 8.10788979 36.44129997 8.10788979 36.45588684 9.47154236 C36.45497543 10.43612869 36.45406403 11.40071503 36.453125 12.39453125 C36.45741013 13.38340836 36.46169525 14.37228546 36.46611023 15.39112854 C36.47186012 17.4851098 36.47234896 19.57911103 36.46801758 21.6730957 C36.46485991 24.8820191 36.48830093 28.09001897 36.51367188 31.29882812 C36.51594497 33.330728 36.51664832 35.36263036 36.515625 37.39453125 C36.52483475 38.35709335 36.53404449 39.31965546 36.54353333 40.31138611 C36.53730453 41.20563797 36.53107574 42.09988983 36.5246582 43.02124023 C36.52528763 43.80796616 36.52591705 44.59469208 36.52656555 45.40525818 C36.04687561 48.04029626 35.31828968 48.90927112 33.15234375 50.4609375 C31.17932129 50.84861755 31.17932129 50.84861755 28.91210938 50.86499023 C27.63563538 50.88401649 27.63563538 50.88401649 26.33337402 50.90342712 C25.41769653 50.90049149 24.50201904 50.89755585 23.55859375 50.89453125 C22.61552368 50.8997731 21.67245361 50.90501495 20.70080566 50.91041565 C18.70695989 50.91683896 16.71307623 50.91549486 14.71923828 50.90698242 C11.66370418 50.89846915 8.61003696 50.92723473 5.5546875 50.95898438 C3.61849014 50.96059634 1.68228947 50.96001895 -0.25390625 50.95703125 C-1.16958374 50.96826523 -2.08526123 50.97949921 -3.02868652 50.99107361 C-9.18212209 50.92324017 -9.18212209 50.92324017 -11.92236328 49.01977539 C-13.361241 45.04065207 -13.27490011 41.22391132 -13.24609375 37.0234375 C-13.24896393 36.1063501 -13.25183411 35.1892627 -13.25479126 34.24438477 C-13.25683036 32.30777366 -13.25131126 30.37114188 -13.23876953 28.43457031 C-13.22271368 25.4715364 -13.23862342 22.50986652 -13.2578125 19.546875 C-13.25583004 17.66405949 -13.25198631 15.78124483 -13.24609375 13.8984375 C-13.25216644 13.01293213 -13.25823914 12.12742676 -13.26449585 11.21508789 C-13.22610582 7.85508095 -13.06664493 5.07763313 -11.93823242 1.89990234 C-8.31231734 -0.59585189 -4.28389882 -0.06544575 0 0 Z " fill="#F3F3F2" transform="translate(345.84765625,230.5390625)"/>
<path d="M0 0 C9.24 0 18.48 0 28 0 C28 9.57 28 19.14 28 29 C18.76 29 9.52 29 0 29 C0 19.43 0 9.86 0 0 Z " fill="#0B0B0A" transform="translate(344,308)"/>
<path d="M0 0 C9.24 0 18.48 0 28 0 C28 9.57 28 19.14 28 29 C18.76 29 9.52 29 0 29 C0 19.43 0 9.86 0 0 Z " fill="#0C0D0C" transform="translate(344,175)"/>
<path d="M0 0 C8.91 0 17.82 0 27 0 C27 9.24 27 18.48 27 28 C18.09 28 9.18 28 0 28 C0 18.76 0 9.52 0 0 Z " fill="#040404" transform="translate(344,242)"/>
<path d="M0 0 C0.66 0.66 1.32 1.32 2 2 C-0.64 4.31 -3.28 6.62 -6 9 C-6.66 8.67 -7.32 8.34 -8 8 C-7.04578192 6.85073734 -6.08647955 5.70569459 -5.125 4.5625 C-4.59132813 3.92441406 -4.05765625 3.28632813 -3.5078125 2.62890625 C-2 1 -2 1 0 0 Z " fill="#D4D4D2" transform="translate(101,229)"/>
<path d="M0 0 C0.66 0.33 1.32 0.66 2 1 C0.02 3.31 -1.96 5.62 -4 8 C-5.32 7.34 -6.64 6.68 -8 6 C-5.36 4.02 -2.72 2.04 0 0 Z " fill="#252523" transform="translate(179,184)"/>
</svg>
